<svg height='100px' width='100px'  fill="#000000" xmlns="http://www.w3.org/2000/svg" xmlns:xlink="http://www.w3.org/1999/xlink" xml:space="preserve" style="shape-rendering:geometricPrecision;text-rendering:geometricPrecision;image-rendering:optimizeQuality;" viewBox="0 0 100 100" x="0px" y="0px" fill-rule="evenodd" clip-rule="evenodd"><defs><style type="text/css">
   
    .fil0 {fill:#000000}
   
  </style></defs><g><path class="fil0" d="M28.6112 24.2919c6.21383,-16.4092 29.229,-17.823 37.5818,-2.58782 12.0143,-0.601186 19.121,7.16226 19.0159,14.4911 15.1206,1.95356 11.7958,27.0108 -3.56696,27.0108l-0.519689 0c1.5756,-3.3142 2.39766,-6.94257 2.39766,-10.6595 0,-13.7446 -11.1532,-24.8943 -24.8967,-24.8943 -13.7446,0 -24.8955,11.1509 -24.8955,24.8943 0,3.81381 0.858668,7.42801 2.39293,10.6595l-8.84062 0c-10.9832,0 -18.8576,-3.06735 -21.3202,-11.2973 -3.92247,-13.1103 4.25436,-30.4467 22.6514,-27.6168zm30.012 5.88194c12.3532,0 22.375,10.0206 22.375,22.3726 0,4.75752 -1.48938,9.16661 -4.02169,12.7938l0.865755 0.865755 -1.16812 1.50592 2.59372 2.64215 1.50237 -1.23072 14.23 13.93 -5.86776 5.8654 -14.2891 -13.9891 1.28505 -1.37245 -2.76262 -2.78742 -1.55671 1.13505 -0.755911 -0.75473c-3.55515,2.3823 -7.83077,3.77247 -12.43,3.77247 -12.3521,0 -22.3738,-10.0217 -22.3738,-22.3762 0,-12.3521 10.0217,-22.3726 22.3738,-22.3726zm0 8.04337c7.91227,0 14.3304,6.41934 14.3304,14.3304 0,7.91227 -6.41816,14.3292 -14.3304,14.3292 -7.91109,0 -14.3292,-6.41698 -14.3292,-14.3292 0,-7.91109 6.41816,-14.3304 14.3292,-14.3304z"></path></g></svg>